<?xml version="1.0" standalone="no"?>
<!DOCTYPE svg PUBLIC "-//W3C//DTD SVG 20010904//EN"
 "http://www.w3.org/TR/2001/REC-SVG-20010904/DTD/svg10.dtd">
<svg version="1.0" xmlns="http://www.w3.org/2000/svg"
 width="480.000000pt" height="480.000000pt" viewBox="0 0 480.000000 480.000000"
 preserveAspectRatio="xMidYMid meet">
<metadata>
Created by potrace 1.14, written by Peter Selinger 2001-2017
</metadata>
<g transform="translate(0.000000,480.000000) scale(0.100000,-0.100000)"
fill="#000000" stroke="none">
<path d="M1505 4340 c-85 -25 -141 -60 -206 -127 -68 -70 -96 -117 -120 -203
-18 -62 -19 -129 -19 -1570 0 -1447 1 -1508 19 -1570 26 -89 60 -145 128 -211
70 -68 117 -96 203 -120 61 -18 113 -19 850 -19 740 0 789 1 850 19 89 26 145
60 211 128 68 70 96 117 120 203 18 62 19 129 19 1570 0 1441 -1 1508 -19
1570 -24 86 -52 133 -120 203 -66 68 -122 102 -211 128 -61 18 -108 19 -855
18 -732 0 -794 -2 -850 -19z m1108 -346 c21 -4 51 -19 67 -34 25 -23 30 -36
30 -74 0 -57 -15 -90 -49 -107 -29 -15 -446 -26 -540 -14 -75 9 -111 47 -111
115 0 41 5 53 30 79 17 16 43 32 58 34 45 7 474 7 515 1z m357 -616 c19 -9 44
-27 56 -40 47 -52 49 -73 49 -423 0 -357 -2 -372 -57 -421 -55 -49 -56 -49
-658 -49 -602 0 -603 0 -658 49 -55 49 -57 64 -57 421 0 350 2 371 49 424 22
24 48 38 101 51 17 5 280 8 585 7 495 -2 559 -4 590 -19z m-1139 -1322 c132
-55 132 -257 0 -312 -117 -49 -241 31 -241 155 0 126 123 206 241 157z m600 0
c132 -55 132 -257 0 -312 -117 -49 -241 31 -241 155 0 126 123 206 241 157z
m600 0 c132 -55 132 -257 0 -312 -117 -49 -241 31 -241 155 0 126 123 206 241
157z m-1200 -600 c132 -55 132 -257 0 -312 -117 -49 -241 31 -241 155 0 126
123 206 241 157z m600 0 c132 -55 132 -257 0 -312 -117 -49 -241 31 -241 155
0 126 123 206 241 157z m600 0 c132 -55 132 -257 0 -312 -117 -49 -241 31
-241 155 0 126 123 206 241 157z"/>
</g>
</svg>
