<?xml version="1.0" encoding="UTF-8" standalone="no" ?>
<!DOCTYPE svg PUBLIC "-//W3C//DTD SVG 1.1//EN" "http://www.w3.org/Graphics/SVG/1.1/DTD/svg11.dtd">
<svg xmlns="http://www.w3.org/2000/svg" xmlns:xlink="http://www.w3.org/1999/xlink" version="1.1" width="270" height="80" viewBox="0 0 135 40" xml:space="preserve">
<desc>Created with Fabric.js 4.6.0</desc>
<defs>
</defs>
<g transform="matrix(1 0 0 1 67.85 20.35)" id="5DnGtFLjI2fKHG93hHrWG"  >
<g style="" vector-effect="non-scaling-stroke"   >
		<g transform="matrix(1 0 0 1 0 0)" id="RrX4ww3R_uHCQ4OnH_Q1G"  >
<path style="stroke: none; stroke-width: 1; stroke-dasharray: none; stroke-linecap: butt; stroke-dashoffset: 0; stroke-linejoin: miter; stroke-miterlimit: 4; fill: rgb(166,166,166); fill-rule: nonzero; opacity: 1;" vector-effect="non-scaling-stroke"  transform=" translate(-67.5, -20)" d="M 130.197 40 L 4.729 40 C 2.122 40 0 37.872 0 35.267 L 0 4.726 C 0 2.12 2.122 0 4.729 0 L 130.197 0 C 132.803 0 135 2.12 135 4.726 L 135 35.267 C 135 37.872 132.803 40 130.197 40 L 130.197 40 z" stroke-linecap="round" />
</g>
		<g transform="matrix(1 0 0 1 -0.04 -0.01)" id="beetxqM-Gouq6n41dJwWZ"  >
<path style="stroke: none; stroke-width: 1; stroke-dasharray: none; stroke-linecap: butt; stroke-dashoffset: 0; stroke-linejoin: miter; stroke-miterlimit: 4; fill: rgb(0,0,0); fill-rule: nonzero; opacity: 1;" vector-effect="non-scaling-stroke"  transform=" translate(-67.46, -19.99)" d="M 134.032 35.268 C 134.032 37.384 132.318 39.098 130.198 39.098 L 4.729 39.098 C 2.61 39.098 0.8900000000000001 37.384 0.8900000000000001 35.268 L 0.8900000000000001 4.725 C 0.8900000000000001 2.6099999999999994 2.6100000000000003 0.8899999999999997 4.729 0.8899999999999997 L 130.197 0.8899999999999997 C 132.318 0.8899999999999997 134.031 2.6099999999999994 134.031 4.725 L 134.032 35.268 L 134.032 35.268 z" stroke-linecap="round" />
</g>
		<g transform="matrix(1 0 0 1 -44.33 2.05)" id="6UbhlRlpPjxD-UYOj7ItF"  >
<path style="stroke: none; stroke-width: 1; stroke-dasharray: none; stroke-linecap: butt; stroke-dashoffset: 0; stroke-linejoin: miter; stroke-miterlimit: 4; fill: rgb(255,255,255); fill-rule: nonzero; opacity: 1;" vector-effect="non-scaling-stroke"  transform=" translate(-23.17, -22.05)" d="M 30.128 19.784 C 30.099 16.561 32.767 14.992999999999999 32.889 14.919999999999998 C 31.378000000000004 12.716999999999999 29.036 12.415999999999999 28.213 12.391999999999998 C 26.246000000000002 12.184999999999997 24.338 13.568999999999997 23.336000000000002 13.568999999999997 C 22.314000000000004 13.568999999999997 20.771 12.411999999999997 19.108000000000004 12.445999999999998 C 16.968000000000004 12.478999999999997 14.966000000000005 13.717999999999998 13.868000000000004 15.641999999999998 C 11.602000000000004 19.564999999999998 13.292000000000003 25.33 15.463000000000005 28.500999999999998 C 16.549000000000003 30.054 17.818000000000005 31.787999999999997 19.479000000000006 31.726999999999997 C 21.104000000000006 31.659999999999997 21.711000000000006 30.690999999999995 23.672000000000004 30.690999999999995 C 25.615000000000006 30.690999999999995 26.185000000000002 31.726999999999997 27.879000000000005 31.687999999999995 C 29.623000000000005 31.659999999999997 30.721000000000004 30.127999999999997 31.769000000000005 28.560999999999996 C 33.02400000000001 26.780999999999995 33.528000000000006 25.027999999999995 33.548 24.937999999999995 C 33.507 24.924 30.161 23.647 30.128 19.784 z" stroke-linecap="round" />
</g>
		<g transform="matrix(1 0 0 1 -41.82 -10.84)" id="xzJCpdshCxPGSQG8T3iPg"  >
<path style="stroke: none; stroke-width: 1; stroke-dasharray: none; stroke-linecap: butt; stroke-dashoffset: 0; stroke-linejoin: miter; stroke-miterlimit: 4; fill: rgb(255,255,255); fill-rule: nonzero; opacity: 1;" vector-effect="non-scaling-stroke"  transform=" translate(-25.68, -9.16)" d="M 26.928 10.306 C 27.802 9.213 28.400000000000002 7.725999999999999 28.234 6.216999999999999 C 26.969 6.272999999999999 25.387 7.091999999999999 24.476000000000003 8.160999999999998 C 23.67 9.102999999999998 22.950000000000003 10.646999999999998 23.136000000000003 12.098999999999998 C 24.557 12.205 26.016 11.382 26.928 10.306 z" stroke-linecap="round" />
</g>
		<g transform="matrix(1 0 0 1 -19.47 4.85)" id="gZSdLJRd3luKZfGxUT1Jv"  >
<path style="stroke: none; stroke-width: 1; stroke-dasharray: none; stroke-linecap: butt; stroke-dashoffset: 0; stroke-linejoin: miter; stroke-miterlimit: 4; fill: rgb(255,255,255); fill-rule: nonzero; opacity: 1;" vector-effect="non-scaling-stroke"  transform=" translate(-48.03, -24.85)" d="M 53.645 31.504 L 51.374 31.504 L 50.13 27.595000000000002 L 45.806000000000004 27.595000000000002 L 44.621 31.504 L 42.410000000000004 31.504 L 46.694 18.196 L 49.34 18.196 L 53.645 31.504 z M 49.755 25.955 L 48.63 22.48 C 48.511 22.125 48.288000000000004 21.289 47.959 19.973 L 47.919000000000004 19.973 C 47.788000000000004 20.538999999999998 47.577000000000005 21.375 47.287000000000006 22.48 L 46.18200000000001 25.955000000000002 L 49.755 25.955000000000002 z" stroke-linecap="round" />
</g>
		<g transform="matrix(1 0 0 1 -7.46 8.56)" id="Qu9HZbVGt0MZD1uW7BsIt"  >
<path style="stroke: none; stroke-width: 1; stroke-dasharray: none; stroke-linecap: butt; stroke-dashoffset: 0; stroke-linejoin: miter; stroke-miterlimit: 4; fill: rgb(255,255,255); fill-rule: nonzero; opacity: 1;" vector-effect="non-scaling-stroke"  transform=" translate(-60.04, -28.56)" d="M 64.662 26.588 C 64.662 28.220000000000002 64.221 29.51 63.339000000000006 30.457 C 62.54900000000001 31.3 61.568000000000005 31.721 60.397000000000006 31.721 C 59.133 31.721 58.22500000000001 31.267 57.672000000000004 30.359 L 57.632000000000005 30.359 L 57.632000000000005 35.414 L 55.50000000000001 35.414 L 55.50000000000001 25.067 C 55.50000000000001 24.041 55.473000000000006 22.988 55.42100000000001 21.908 L 57.29600000000001 21.908 L 57.415000000000006 23.429000000000002 L 57.455000000000005 23.429000000000002 C 58.166000000000004 22.283 59.245000000000005 21.711000000000002 60.693000000000005 21.711000000000002 C 61.825 21.711000000000002 62.77 22.158 63.526 23.053 C 64.284 23.949 64.662 25.127 64.662 26.588 z M 62.49 26.666 C 62.49 25.732 62.28 24.962 61.858000000000004 24.356 C 61.397000000000006 23.724 60.778000000000006 23.408 60.002 23.408 C 59.476 23.408 58.998000000000005 23.584 58.571000000000005 23.931 C 58.14300000000001 24.281000000000002 57.86300000000001 24.738 57.732000000000006 25.304000000000002 C 57.666000000000004 25.568 57.63300000000001 25.784000000000002 57.63300000000001 25.954 L 57.63300000000001 27.554000000000002 C 57.63300000000001 28.252000000000002 57.84700000000001 28.841 58.27500000000001 29.322000000000003 C 58.70300000000002 29.803000000000004 59.259000000000015 30.043000000000003 59.94300000000001 30.043000000000003 C 60.74600000000001 30.043000000000003 61.37100000000001 29.733000000000004 61.81800000000001 29.115000000000002 C 62.266 28.496 62.49 27.68 62.49 26.666 z" stroke-linecap="round" />
</g>
		<g transform="matrix(1 0 0 1 3.58 8.56)" id="6CzoGMAqUT7pD-Giurknh"  >
<path style="stroke: none; stroke-width: 1; stroke-dasharray: none; stroke-linecap: butt; stroke-dashoffset: 0; stroke-linejoin: miter; stroke-miterlimit: 4; fill: rgb(255,255,255); fill-rule: nonzero; opacity: 1;" vector-effect="non-scaling-stroke"  transform=" translate(-71.08, -28.56)" d="M 75.699 26.588 C 75.699 28.220000000000002 75.258 29.51 74.375 30.457 C 73.586 31.3 72.605 31.721 71.434 31.721 C 70.17 31.721 69.262 31.267 68.71 30.359 L 68.67 30.359 L 68.67 35.414 L 66.538 35.414 L 66.538 25.067 C 66.538 24.041 66.511 22.988 66.459 21.908 L 68.334 21.908 L 68.453 23.429000000000002 L 68.49300000000001 23.429000000000002 C 69.203 22.283 70.28200000000001 21.711000000000002 71.73100000000001 21.711000000000002 C 72.86200000000001 21.711000000000002 73.807 22.158 74.56500000000001 23.053 C 75.32 23.949 75.699 25.127 75.699 26.588 z M 73.527 26.666 C 73.527 25.732 73.316 24.962 72.894 24.356 C 72.433 23.724 71.816 23.408 71.039 23.408 C 70.512 23.408 70.035 23.584 69.607 23.931 C 69.179 24.281000000000002 68.9 24.738 68.769 25.304000000000002 C 68.70400000000001 25.568 68.67 25.784000000000002 68.67 25.954 L 68.67 27.554000000000002 C 68.67 28.252000000000002 68.884 28.841 69.31 29.322000000000003 C 69.738 29.802000000000003 70.294 30.043000000000003 70.98 30.043000000000003 C 71.783 30.043000000000003 72.408 29.733000000000004 72.855 29.115000000000002 C 73.303 28.496 73.527 27.68 73.527 26.666 z" stroke-linecap="round" />
</g>
		<g transform="matrix(1 0 0 1 16.41 4.85)" id="NznXSh1-Vt7vvhhYKEIWg"  >
<path style="stroke: none; stroke-width: 1; stroke-dasharray: none; stroke-linecap: butt; stroke-dashoffset: 0; stroke-linejoin: miter; stroke-miterlimit: 4; fill: rgb(255,255,255); fill-rule: nonzero; opacity: 1;" vector-effect="non-scaling-stroke"  transform=" translate(-83.91, -24.85)" d="M 88.039 27.772 C 88.039 28.904 87.646 29.825 86.857 30.535999999999998 C 85.99 31.313 84.783 31.700999999999997 83.232 31.700999999999997 C 81.8 31.700999999999997 80.652 31.424999999999997 79.783 30.871999999999996 L 80.277 29.094999999999995 C 81.21300000000001 29.660999999999994 82.24 29.944999999999997 83.359 29.944999999999997 C 84.16199999999999 29.944999999999997 84.78699999999999 29.762999999999998 85.23599999999999 29.400999999999996 C 85.68299999999999 29.038999999999998 85.90599999999999 28.552999999999997 85.90599999999999 27.946999999999996 C 85.90599999999999 27.406999999999996 85.722 26.951999999999995 85.353 26.582999999999995 C 84.98599999999999 26.213999999999995 84.37299999999999 25.870999999999995 83.517 25.553999999999995 C 81.187 24.684999999999995 80.023 23.411999999999995 80.023 21.737999999999996 C 80.023 20.643999999999995 80.431 19.746999999999996 81.24799999999999 19.048999999999996 C 82.06199999999998 18.349999999999994 83.148 18.000999999999998 84.50599999999999 18.000999999999998 C 85.71699999999998 18.000999999999998 86.72299999999998 18.211999999999996 87.52599999999998 18.633 L 86.99299999999998 20.371 C 86.24299999999998 19.962999999999997 85.39499999999998 19.759 84.44599999999998 19.759 C 83.69599999999998 19.759 83.10999999999999 19.944 82.68999999999998 20.312 C 82.33499999999998 20.641000000000002 82.15699999999998 21.042 82.15699999999998 21.517000000000003 C 82.15699999999998 22.043000000000003 82.35999999999999 22.478 82.76799999999999 22.820000000000004 C 83.12299999999999 23.136000000000003 83.76799999999999 23.478000000000005 84.70399999999998 23.847000000000005 C 85.84899999999998 24.308000000000003 86.68999999999998 24.847000000000005 87.23099999999998 25.465000000000003 C 87.77 26.081 88.039 26.852 88.039 27.772 z" stroke-linecap="round" />
</g>
		<g transform="matrix(1 0 0 1 24.67 5.61)" id="mAdPw3fnY6UJKWPXAri99"  >
<path style="stroke: none; stroke-width: 1; stroke-dasharray: none; stroke-linecap: butt; stroke-dashoffset: 0; stroke-linejoin: miter; stroke-miterlimit: 4; fill: rgb(255,255,255); fill-rule: nonzero; opacity: 1;" vector-effect="non-scaling-stroke"  transform=" translate(-92.17, -25.61)" d="M 95.088 23.508 L 92.738 23.508 L 92.738 28.166999999999998 C 92.738 29.351999999999997 93.152 29.944 93.982 29.944 C 94.363 29.944 94.679 29.910999999999998 94.929 29.845 L 94.988 31.464 C 94.568 31.621 94.015 31.7 93.33 31.7 C 92.488 31.7 91.83 31.442999999999998 91.355 30.93 C 90.882 30.416 90.644 29.554 90.644 28.343 L 90.644 23.506 L 89.244 23.506 L 89.244 21.906 L 90.644 21.906 L 90.644 20.148999999999997 L 92.738 19.516999999999996 L 92.738 21.905999999999995 L 95.088 21.905999999999995 L 95.088 23.508 z" stroke-linecap="round" />
</g>
		<g transform="matrix(1 0 0 1 33.49 6.72)" id="51b7f4mofQqq80XXS15iN"  >
<path style="stroke: none; stroke-width: 1; stroke-dasharray: none; stroke-linecap: butt; stroke-dashoffset: 0; stroke-linejoin: miter; stroke-miterlimit: 4; fill: rgb(255,255,255); fill-rule: nonzero; opacity: 1;" vector-effect="non-scaling-stroke"  transform=" translate(-100.99, -26.72)" d="M 105.691 26.627 C 105.691 28.102 105.269 29.313 104.427 30.259999999999998 C 103.54400000000001 31.235 102.372 31.720999999999997 100.911 31.720999999999997 C 99.503 31.720999999999997 98.382 31.253999999999998 97.546 30.319999999999997 C 96.71000000000001 29.385999999999996 96.292 28.206999999999997 96.292 26.785999999999998 C 96.292 25.299 96.72200000000001 24.080999999999996 97.58500000000001 23.133999999999997 C 98.44600000000001 22.185999999999996 99.608 21.711999999999996 101.069 21.711999999999996 C 102.477 21.711999999999996 103.61 22.178999999999995 104.465 23.113999999999997 C 105.283 24.021 105.691 25.192 105.691 26.627 z M 103.479 26.696 C 103.479 25.811 103.29 25.052000000000003 102.907 24.419 C 102.46 23.653 101.821 23.271 100.993 23.271 C 100.136 23.271 99.485 23.654 99.038 24.419 C 98.655 25.053 98.466 25.824 98.466 26.736 C 98.466 27.621000000000002 98.65499999999999 28.38 99.038 29.012 C 99.499 29.778 100.143 30.16 100.97399999999999 30.16 C 101.78799999999998 30.16 102.42699999999999 29.77 102.88799999999999 28.992 C 103.281 28.347 103.479 27.58 103.479 26.696 z" stroke-linecap="round" />
</g>
		<g transform="matrix(1 0 0 1 42.55 6.61)" id="n2XhaxjksEKoZfKynR-WO"  >
<path style="stroke: none; stroke-width: 1; stroke-dasharray: none; stroke-linecap: butt; stroke-dashoffset: 0; stroke-linejoin: miter; stroke-miterlimit: 4; fill: rgb(255,255,255); fill-rule: nonzero; opacity: 1;" vector-effect="non-scaling-stroke"  transform=" translate(-110.05, -26.61)" d="M 112.621 23.783 C 112.41 23.744 112.18499999999999 23.724 111.949 23.724 C 111.199 23.724 110.619 24.007 110.211 24.574 C 109.856 25.074 109.678 25.706000000000003 109.678 26.469 L 109.678 31.504 L 107.547 31.504 L 107.567 24.93 C 107.567 23.823999999999998 107.53999999999999 22.817 107.487 21.909 L 109.344 21.909 L 109.422 23.744999999999997 L 109.481 23.744999999999997 C 109.70599999999999 23.113999999999997 110.06099999999999 22.605999999999998 110.547 22.224999999999998 C 111.02199999999999 21.881999999999998 111.535 21.711 112.088 21.711 C 112.285 21.711 112.463 21.724999999999998 112.621 21.75 L 112.621 23.783 z" stroke-linecap="round" />
</g>
		<g transform="matrix(1 0 0 1 50.39 6.69)" id="BYGLioAyn7cbatbttWo8z"  >
<path style="stroke: none; stroke-width: 1; stroke-dasharray: none; stroke-linecap: butt; stroke-dashoffset: 0; stroke-linejoin: miter; stroke-miterlimit: 4; fill: rgb(255,255,255); fill-rule: nonzero; opacity: 1;" vector-effect="non-scaling-stroke"  transform=" translate(-117.89, -26.69)" d="M 122.156 26.252 C 122.156 26.634 122.131 26.956 122.078 27.218999999999998 L 115.682 27.218999999999998 C 115.70700000000001 28.166999999999998 116.016 28.891999999999996 116.61 29.391999999999996 C 117.149 29.838999999999995 117.846 30.062999999999995 118.702 30.062999999999995 C 119.649 30.062999999999995 120.513 29.911999999999995 121.28999999999999 29.608999999999995 L 121.624 31.088999999999995 C 120.716 31.484999999999996 119.64399999999999 31.681999999999995 118.407 31.681999999999995 C 116.919 31.681999999999995 115.75099999999999 31.243999999999996 114.901 30.368999999999996 C 114.053 29.493999999999996 113.628 28.318999999999996 113.628 26.844999999999995 C 113.628 25.397999999999996 114.023 24.192999999999994 114.814 23.231999999999996 C 115.642 22.205999999999996 116.761 21.692999999999994 118.169 21.692999999999994 C 119.55199999999999 21.692999999999994 120.599 22.205999999999996 121.31 23.231999999999996 C 121.873 24.047 122.156 25.055 122.156 26.252 z M 120.123 25.699 C 120.137 25.067 119.998 24.521 119.709 24.060000000000002 C 119.34 23.467000000000002 118.773 23.171000000000003 118.01 23.171000000000003 C 117.313 23.171000000000003 116.74600000000001 23.460000000000004 116.313 24.040000000000003 C 115.958 24.501 115.747 25.054000000000002 115.682 25.698000000000004 L 120.123 25.698000000000004 z" stroke-linecap="round" />
</g>
		<g transform="matrix(1 0 0 1 -21.14 -9.83)" id="NqcIounxG8KglPUDDEPId"  >
<path style="stroke: none; stroke-width: 1; stroke-dasharray: none; stroke-linecap: butt; stroke-dashoffset: 0; stroke-linejoin: miter; stroke-miterlimit: 4; fill: rgb(255,255,255); fill-rule: nonzero; opacity: 1;" vector-effect="non-scaling-stroke"  transform=" translate(-46.36, -10.17)" d="M 49.05 10.009 C 49.05 11.186 48.696999999999996 12.072000000000001 47.992 12.667 C 47.339 13.216 46.410999999999994 13.491 45.208999999999996 13.491 C 44.613 13.491 44.102999999999994 13.465 43.675999999999995 13.413 L 43.675999999999995 6.982 C 44.233 6.892 44.833 6.846 45.480999999999995 6.846 C 46.626 6.846 47.489 7.095 48.071 7.593 C 48.723 8.156 49.05 8.961 49.05 10.009 z M 47.945 10.038 C 47.945 9.275 47.743 8.69 47.339 8.282 C 46.934999999999995 7.875 46.345 7.671 45.568 7.671 C 45.238 7.671 44.957 7.6930000000000005 44.724 7.739 L 44.724 12.628 C 44.852999999999994 12.648 45.089 12.657 45.431999999999995 12.657 C 46.233999999999995 12.657 46.852999999999994 12.434 47.288999999999994 11.988 C 47.724999999999994 11.542 47.945 10.892 47.945 10.038 z" stroke-linecap="round" />
</g>
		<g transform="matrix(1 0 0 1 -14.9 -8.92)" id="YXIo8JahTv0yM04WeM8ny"  >
<path style="stroke: none; stroke-width: 1; stroke-dasharray: none; stroke-linecap: butt; stroke-dashoffset: 0; stroke-linejoin: miter; stroke-miterlimit: 4; fill: rgb(255,255,255); fill-rule: nonzero; opacity: 1;" vector-effect="non-scaling-stroke"  transform=" translate(-52.6, -11.08)" d="M 54.909 11.037 C 54.909 11.762 54.702 12.356000000000002 54.288 12.822000000000001 C 53.854 13.301 53.278999999999996 13.540000000000001 52.561 13.540000000000001 C 51.869 13.540000000000001 51.318 13.311000000000002 50.907 12.851 C 50.497 12.392000000000001 50.291999999999994 11.813 50.291999999999994 11.115 C 50.291999999999994 10.385 50.50299999999999 9.786 50.92699999999999 9.321 C 51.35099999999999 8.856 51.92099999999999 8.623 52.638999999999996 8.623 C 53.330999999999996 8.623 53.88699999999999 8.851999999999999 54.30799999999999 9.311 C 54.708 9.757 54.909 10.333 54.909 11.037 z M 53.822 11.071 C 53.822 10.636 53.728 10.263 53.541000000000004 9.952 C 53.321000000000005 9.576 53.008 9.388 52.601000000000006 9.388 C 52.18000000000001 9.388 51.86000000000001 9.576 51.64000000000001 9.952 C 51.452000000000005 10.263 51.35900000000001 10.642 51.35900000000001 11.09 C 51.35900000000001 11.525 51.45300000000001 11.898 51.64000000000001 12.209 C 51.867000000000004 12.584999999999999 52.18300000000001 12.773 52.59100000000001 12.773 C 52.99100000000001 12.773 53.30500000000001 12.581999999999999 53.531000000000006 12.199 C 53.725 11.882 53.822 11.506 53.822 11.071 z" stroke-linecap="round" />
</g>
		<g transform="matrix(1 0 0 1 -8.15 -8.92)" id="8kV-1Q_AObu_gLAuhWlSW"  >
<path style="stroke: none; stroke-width: 1; stroke-dasharray: none; stroke-linecap: butt; stroke-dashoffset: 0; stroke-linejoin: miter; stroke-miterlimit: 4; fill: rgb(255,255,255); fill-rule: nonzero; opacity: 1;" vector-effect="non-scaling-stroke"  transform=" translate(-59.35, -11.08)" d="M 62.765 8.719 L 61.29 13.433 L 60.33 13.433 L 59.719 11.386 C 59.564 10.875 59.438 10.366999999999999 59.34 9.863 L 59.321000000000005 9.863 C 59.230000000000004 10.381 59.104000000000006 10.888 58.94200000000001 11.386 L 58.293000000000006 13.433 L 57.32200000000001 13.433 L 55.93500000000001 8.719 L 57.01200000000001 8.719 L 57.54500000000001 10.959999999999999 C 57.67400000000001 11.489999999999998 57.78000000000001 11.995 57.86500000000001 12.472999999999999 L 57.88400000000001 12.472999999999999 C 57.96200000000001 12.078999999999999 58.09100000000001 11.576999999999998 58.27300000000001 10.969999999999999 L 58.94200000000001 8.719999999999999 L 59.79600000000001 8.719999999999999 L 60.437000000000005 10.921999999999999 C 60.592000000000006 11.459 60.718 11.975999999999999 60.815000000000005 12.473999999999998 L 60.84400000000001 12.473999999999998 C 60.915000000000006 11.988999999999999 61.022000000000006 11.471999999999998 61.16400000000001 10.921999999999999 L 61.73600000000001 8.719999999999999 L 62.765 8.719999999999999 z" stroke-linecap="round" />
</g>
		<g transform="matrix(1 0 0 1 -1.37 -8.97)" id="fBOg3mCm3pyX3EWtLEW11"  >
<path style="stroke: none; stroke-width: 1; stroke-dasharray: none; stroke-linecap: butt; stroke-dashoffset: 0; stroke-linejoin: miter; stroke-miterlimit: 4; fill: rgb(255,255,255); fill-rule: nonzero; opacity: 1;" vector-effect="non-scaling-stroke"  transform=" translate(-66.13, -11.03)" d="M 68.198 13.433 L 67.15 13.433 L 67.15 10.733 C 67.15 9.901 66.834 9.485000000000001 66.2 9.485000000000001 C 65.889 9.485000000000001 65.638 9.599000000000002 65.443 9.828000000000001 C 65.25 10.057 65.152 10.327000000000002 65.152 10.636000000000001 L 65.152 13.432 L 64.104 13.432 L 64.104 10.066 C 64.104 9.652000000000001 64.091 9.203000000000001 64.066 8.717 L 64.98700000000001 8.717 L 65.03600000000002 9.454 L 65.06500000000001 9.454 C 65.18700000000001 9.225000000000001 65.36900000000001 9.036000000000001 65.60800000000002 8.885000000000002 C 65.89200000000002 8.709000000000001 66.21000000000002 8.620000000000001 66.55800000000002 8.620000000000001 C 66.99800000000002 8.620000000000001 67.36400000000002 8.762 67.65500000000002 9.047 C 68.01700000000001 9.396 68.19800000000002 9.917 68.19800000000002 10.609 L 68.19800000000002 13.433 z" stroke-linecap="round" />
</g>
		<g transform="matrix(1 0 0 1 3.06 -10.01)" id="9LDCaN5Se3gEy3XhYJLRp"  >
<path style="stroke: none; stroke-width: 1; stroke-dasharray: none; stroke-linecap: butt; stroke-dashoffset: 0; stroke-linejoin: miter; stroke-miterlimit: 4; fill: rgb(255,255,255); fill-rule: nonzero; opacity: 1;" vector-effect="non-scaling-stroke"  transform=" translate(-70.56, -9.99)" d="M 71.088 13.433 L 70.041 13.433 L 70.041 6.556 L 71.088 6.556 L 71.088 13.433 z" stroke-linecap="round" />
</g>
		<g transform="matrix(1 0 0 1 7.45 -8.92)" id="eQ1N3TWPvkSz3u9giuIvj"  >
<path style="stroke: none; stroke-width: 1; stroke-dasharray: none; stroke-linecap: butt; stroke-dashoffset: 0; stroke-linejoin: miter; stroke-miterlimit: 4; fill: rgb(255,255,255); fill-rule: nonzero; opacity: 1;" vector-effect="non-scaling-stroke"  transform=" translate(-74.95, -11.08)" d="M 77.258 11.037 C 77.258 11.762 77.051 12.356000000000002 76.637 12.822000000000001 C 76.203 13.301 75.627 13.540000000000001 74.91 13.540000000000001 C 74.217 13.540000000000001 73.666 13.311000000000002 73.256 12.851 C 72.846 12.392000000000001 72.641 11.813 72.641 11.115 C 72.641 10.385 72.852 9.786 73.27600000000001 9.321 C 73.70000000000002 8.856 74.27000000000001 8.623 74.98700000000001 8.623 C 75.68 8.623 76.23500000000001 8.851999999999999 76.65700000000001 9.311 C 77.057 9.757 77.258 10.333 77.258 11.037 z M 76.17 11.071 C 76.17 10.636 76.07600000000001 10.263 75.889 9.952 C 75.67 9.576 75.356 9.388 74.95 9.388 C 74.528 9.388 74.208 9.576 73.989 9.952 C 73.801 10.263 73.708 10.642 73.708 11.09 C 73.708 11.525 73.80199999999999 11.898 73.989 12.209 C 74.21600000000001 12.584999999999999 74.53200000000001 12.773 74.94 12.773 C 75.34 12.773 75.65299999999999 12.581999999999999 75.87899999999999 12.199 C 76.074 11.882 76.17 11.506 76.17 11.071 z" stroke-linecap="round" />
</g>
		<g transform="matrix(1 0 0 1 12.9 -8.92)" id="qqM5MazYbfAPh2U66yuty"  >
<path style="stroke: none; stroke-width: 1; stroke-dasharray: none; stroke-linecap: butt; stroke-dashoffset: 0; stroke-linejoin: miter; stroke-miterlimit: 4; fill: rgb(255,255,255); fill-rule: nonzero; opacity: 1;" vector-effect="non-scaling-stroke"  transform=" translate(-80.4, -11.08)" d="M 82.33 13.433 L 81.389 13.433 L 81.31099999999999 12.89 L 81.282 12.89 C 80.96 13.323 80.50099999999999 13.540000000000001 79.905 13.540000000000001 C 79.46000000000001 13.540000000000001 79.1 13.397 78.82900000000001 13.113000000000001 C 78.58300000000001 12.855 78.46000000000001 12.534 78.46000000000001 12.153000000000002 C 78.46000000000001 11.577000000000002 78.7 11.138000000000002 79.183 10.834000000000003 C 79.665 10.530000000000003 80.343 10.381000000000004 81.21600000000001 10.388000000000003 L 81.21600000000001 10.3 C 81.21600000000001 9.679 80.89000000000001 9.369 80.23700000000001 9.369 C 79.772 9.369 79.36200000000001 9.486 79.00800000000001 9.718 L 78.79500000000002 9.03 C 79.23300000000002 8.758999999999999 79.77400000000002 8.623 80.41200000000002 8.623 C 81.64400000000002 8.623 82.26200000000001 9.273 82.26200000000001 10.572999999999999 L 82.26200000000001 12.309 C 82.262 12.78 82.285 13.155 82.33 13.433 z M 81.242 11.813 L 81.242 11.086 C 80.086 11.066 79.50800000000001 11.383000000000001 79.50800000000001 12.036 C 79.50800000000001 12.282 79.57400000000001 12.466 79.709 12.589 C 79.84400000000001 12.712 80.016 12.773 80.221 12.773 C 80.45100000000001 12.773 80.666 12.7 80.86200000000001 12.555 C 81.05900000000001 12.408999999999999 81.18 12.224 81.22500000000001 11.997 C 81.236 11.946 81.242 11.884 81.242 11.813 z" stroke-linecap="round" />
</g>
		<g transform="matrix(1 0 0 1 18.53 -9.95)" id="iDaMbZpTJkrBbkgul1D3V"  >
<path style="stroke: none; stroke-width: 1; stroke-dasharray: none; stroke-linecap: butt; stroke-dashoffset: 0; stroke-linejoin: miter; stroke-miterlimit: 4; fill: rgb(255,255,255); fill-rule: nonzero; opacity: 1;" vector-effect="non-scaling-stroke"  transform=" translate(-86.03, -10.05)" d="M 88.285 13.433 L 87.35499999999999 13.433 L 87.30599999999998 12.676 L 87.27699999999999 12.676 C 86.97999999999999 13.252 86.47399999999999 13.540000000000001 85.76299999999999 13.540000000000001 C 85.195 13.540000000000001 84.722 13.317 84.347 12.871 C 83.972 12.425 83.785 11.846 83.785 11.135 C 83.785 10.372 83.988 9.754 84.396 9.282 C 84.791 8.842 85.275 8.622 85.851 8.622 C 86.484 8.622 86.92699999999999 8.834999999999999 87.179 9.262 L 87.199 9.262 L 87.199 6.556 L 88.248 6.556 L 88.248 12.163 C 88.248 12.622 88.26 13.045 88.285 13.433 z M 87.199 11.445 L 87.199 10.659 C 87.199 10.523000000000001 87.189 10.413 87.17 10.329 C 87.111 10.077 86.984 9.865 86.791 9.694 C 86.596 9.523000000000001 86.36099999999999 9.437000000000001 86.09 9.437000000000001 C 85.699 9.437000000000001 85.393 9.592 85.168 9.903 C 84.94500000000001 10.214 84.83200000000001 10.611 84.83200000000001 11.096 C 84.83200000000001 11.562 84.93900000000001 11.94 85.15400000000001 12.231 C 85.38100000000001 12.541 85.68700000000001 12.696 86.07000000000001 12.696 C 86.414 12.696 86.68900000000001 12.567 86.89800000000001 12.308 C 87.1 12.069 87.199 11.781 87.199 11.445 z" stroke-linecap="round" />
</g>
		<g transform="matrix(1 0 0 1 27.44 -8.92)" id="2vixpsQEgxTxwvXvlMm7P"  >
<path style="stroke: none; stroke-width: 1; stroke-dasharray: none; stroke-linecap: butt; stroke-dashoffset: 0; stroke-linejoin: miter; stroke-miterlimit: 4; fill: rgb(255,255,255); fill-rule: nonzero; opacity: 1;" vector-effect="non-scaling-stroke"  transform=" translate(-94.94, -11.08)" d="M 97.248 11.037 C 97.248 11.762 97.04100000000001 12.356000000000002 96.62700000000001 12.822000000000001 C 96.19300000000001 13.301 95.61900000000001 13.540000000000001 94.9 13.540000000000001 C 94.209 13.540000000000001 93.658 13.311000000000002 93.24600000000001 12.851 C 92.83600000000001 12.392000000000001 92.63100000000001 11.813 92.63100000000001 11.115 C 92.63100000000001 10.385 92.84200000000001 9.786 93.26600000000002 9.321 C 93.69000000000003 8.856 94.26000000000002 8.623 94.97900000000001 8.623 C 95.67000000000002 8.623 96.22700000000002 8.851999999999999 96.64700000000002 9.311 C 97.047 9.757 97.248 10.333 97.248 11.037 z M 96.162 11.071 C 96.162 10.636 96.06800000000001 10.263 95.881 9.952 C 95.66 9.576 95.348 9.388 94.94 9.388 C 94.52 9.388 94.2 9.576 93.979 9.952 C 93.791 10.263 93.698 10.642 93.698 11.09 C 93.698 11.525 93.79199999999999 11.898 93.979 12.209 C 94.206 12.584999999999999 94.522 12.773 94.92999999999999 12.773 C 95.33 12.773 95.645 12.581999999999999 95.871 12.199 C 96.064 11.882 96.162 11.506 96.162 11.071 z" stroke-linecap="round" />
</g>
		<g transform="matrix(1 0 0 1 33.32 -8.97)" id="h-_wM5R1Km12ISLyDhLgY"  >
<path style="stroke: none; stroke-width: 1; stroke-dasharray: none; stroke-linecap: butt; stroke-dashoffset: 0; stroke-linejoin: miter; stroke-miterlimit: 4; fill: rgb(255,255,255); fill-rule: nonzero; opacity: 1;" vector-effect="non-scaling-stroke"  transform=" translate(-100.82, -11.03)" d="M 102.883 13.433 L 101.836 13.433 L 101.836 10.733 C 101.836 9.901 101.52 9.485000000000001 100.885 9.485000000000001 C 100.574 9.485000000000001 100.32300000000001 9.599000000000002 100.129 9.828000000000001 C 99.935 10.057 99.83800000000001 10.327000000000002 99.83800000000001 10.636000000000001 L 99.83800000000001 13.432 L 98.789 13.432 L 98.789 10.066 C 98.789 9.652000000000001 98.777 9.203000000000001 98.752 8.717 L 99.672 8.717 L 99.721 9.454 L 99.75 9.454 C 99.873 9.225000000000001 100.055 9.036000000000001 100.293 8.885000000000002 C 100.578 8.709000000000001 100.89500000000001 8.620000000000001 101.244 8.620000000000001 C 101.68299999999999 8.620000000000001 102.049 8.762 102.34 9.047 C 102.703 9.396 102.88300000000001 9.917 102.88300000000001 10.609 L 102.88300000000001 13.433 z" stroke-linecap="round" />
</g>
		<g transform="matrix(1 0 0 1 41 -9.46)" id="71soxyEQ4YwINgpM3plzT"  >
<path style="stroke: none; stroke-width: 1; stroke-dasharray: none; stroke-linecap: butt; stroke-dashoffset: 0; stroke-linejoin: miter; stroke-miterlimit: 4; fill: rgb(255,255,255); fill-rule: nonzero; opacity: 1;" vector-effect="non-scaling-stroke"  transform=" translate(-108.5, -10.54)" d="M 109.936 9.504 L 108.78200000000001 9.504 L 108.78200000000001 11.794 C 108.78200000000001 12.376000000000001 108.98700000000001 12.667 109.39300000000001 12.667 C 109.58100000000002 12.667 109.73700000000001 12.651 109.86000000000001 12.618 L 109.88700000000001 13.413 C 109.68000000000002 13.491 109.40800000000002 13.530000000000001 109.07300000000002 13.530000000000001 C 108.65900000000002 13.530000000000001 108.33700000000002 13.404000000000002 108.10400000000003 13.152000000000001 C 107.87000000000003 12.9 107.75400000000003 12.476 107.75400000000003 11.881 L 107.75400000000003 9.504 L 107.06500000000004 9.504 L 107.06500000000004 8.719 L 107.75400000000003 8.719 L 107.75400000000003 7.855 L 108.78100000000003 7.545000000000001 L 108.78100000000003 8.718 L 109.93500000000003 8.718 L 109.93500000000003 9.504 z" stroke-linecap="round" />
</g>
		<g transform="matrix(1 0 0 1 45.94 -10.01)" id="WswfbtlVUY7rcBqLXVxJu"  >
<path style="stroke: none; stroke-width: 1; stroke-dasharray: none; stroke-linecap: butt; stroke-dashoffset: 0; stroke-linejoin: miter; stroke-miterlimit: 4; fill: rgb(255,255,255); fill-rule: nonzero; opacity: 1;" vector-effect="non-scaling-stroke"  transform=" translate(-113.44, -9.99)" d="M 115.484 13.433 L 114.43499999999999 13.433 L 114.43499999999999 10.753 C 114.43499999999999 9.908 114.11899999999999 9.485 113.48599999999999 9.485 C 112.99999999999999 9.485 112.66799999999999 9.729999999999999 112.48599999999999 10.219999999999999 C 112.45499999999998 10.322999999999999 112.43699999999998 10.448999999999998 112.43699999999998 10.597 L 112.43699999999998 13.431999999999999 L 111.38999999999999 13.431999999999999 L 111.38999999999999 6.556 L 112.43699999999998 6.556 L 112.43699999999998 9.397 L 112.45699999999998 9.397 C 112.78699999999998 8.88 113.25999999999998 8.622 113.87299999999998 8.622 C 114.30699999999997 8.622 114.66599999999998 8.764 114.95099999999998 9.049 C 115.30599999999998 9.404 115.48399999999998 9.931999999999999 115.48399999999998 10.629999999999999 L 115.48399999999998 13.433 z" stroke-linecap="round" />
</g>
		<g transform="matrix(1 0 0 1 51.61 -8.93)" id="-fGvqn3PJB98bqPRyB4Su"  >
<path style="stroke: none; stroke-width: 1; stroke-dasharray: none; stroke-linecap: butt; stroke-dashoffset: 0; stroke-linejoin: miter; stroke-miterlimit: 4; fill: rgb(255,255,255); fill-rule: nonzero; opacity: 1;" vector-effect="non-scaling-stroke"  transform=" translate(-119.11, -11.07)" d="M 121.207 10.853 C 121.207 11.041 121.193 11.199 121.16799999999999 11.328 L 118.02499999999999 11.328 C 118.03899999999999 11.793999999999999 118.189 12.149 118.47999999999999 12.395 C 118.746 12.615 119.08899999999998 12.725 119.50899999999999 12.725 C 119.97399999999999 12.725 120.39799999999998 12.651 120.77999999999999 12.501999999999999 L 120.94399999999999 13.229999999999999 C 120.49699999999999 13.424 119.97099999999999 13.520999999999999 119.362 13.520999999999999 C 118.63199999999999 13.520999999999999 118.05699999999999 13.306 117.64099999999999 12.876 C 117.22299999999998 12.446 117.01599999999999 11.869 117.01599999999999 11.145 C 117.01599999999999 10.434 117.20899999999999 9.841999999999999 117.59799999999998 9.37 C 118.00399999999999 8.866 118.55299999999998 8.613999999999999 119.24599999999998 8.613999999999999 C 119.92399999999998 8.613999999999999 120.43899999999998 8.866 120.78699999999998 9.37 C 121.068 9.77 121.207 10.265 121.207 10.853 z M 120.207 10.582 C 120.21499999999999 10.271 120.14599999999999 10.003 120.00399999999999 9.777000000000001 C 119.82199999999999 9.486 119.54499999999999 9.340000000000002 119.16999999999999 9.340000000000002 C 118.82799999999999 9.340000000000002 118.54899999999999 9.482000000000001 118.33599999999998 9.767000000000001 C 118.16199999999998 9.994000000000002 118.05899999999998 10.265 118.02499999999998 10.582 L 120.207 10.582 z" stroke-linecap="round" />
</g>
</g>
</g>
</svg>